<?xml version="1.0" encoding="UTF-8" standalone="no"?>
<svg width="82px" height="67px" viewBox="0 0 82 67" version="1.1" xmlns="http://www.w3.org/2000/svg" xmlns:xlink="http://www.w3.org/1999/xlink">
    <!-- Generator: Sketch 40.2 (33826) - http://www.bohemiancoding.com/sketch -->
    <title>Page 1</title>
    <desc>Created with Sketch.</desc>
    <defs>
        <polygon id="path-1" points="11.215035 5.22032768 11.215035 0.0144404431 0.899254753 0.0144404431 0.899254753 5.22032768 11.215035 5.22032768"></polygon>
    </defs>
    <g id="Page-1" stroke="none" stroke-width="1" fill="none" fill-rule="evenodd">
        <g id="Desktop-HD-Copy-3" transform="translate(-261.000000, -805.000000)">
            <g id="Group-9" transform="translate(247.000000, 581.000000)">
                <g id="Group-5" transform="translate(14.000000, 214.000000)">
                    <g id="Page-1" transform="translate(0.000000, 10.559322)">
                        <path d="M40.5266903,9.85536723 C41.1261576,9.85536723 41.5258025,9.45310734 41.5258025,8.84971751 L41.5258025,1.00564972 C41.5258025,0.402259887 41.1261576,0 40.5266903,0 C39.9272229,0 39.527578,0.402259887 39.527578,1.00564972 L39.527578,8.84971751 C39.527578,9.35254237 39.9272229,9.85536723 40.5266903,9.85536723" id="Fill-1" fill="#50538C"></path>
                        <path d="M20.9439904,16.9954802 C21.1438128,17.2971751 21.4435465,17.3977401 21.7432802,17.3977401 C21.9431026,17.3977401 22.1429251,17.2971751 22.3427475,17.1966102 C22.8423036,16.8949153 22.9422149,16.2915254 22.6424812,15.7887006 L17.3471863,8.04519774 C17.0474526,7.54237288 16.4479853,7.44180791 15.9484291,7.74350282 C15.448873,8.04519774 15.3489618,8.64858757 15.6486955,9.15141243 L20.9439904,16.9954802 Z" id="Fill-3" fill="#50538C"></path>
                        <g id="Group-7" transform="translate(0.000000, 27.865548)" fill="#50538C">
                            <path d="M9.65402198,3.20902825 L1.36139035,0.0915141243 C0.861834223,-0.109615819 0.262366876,0.0915141243 0.0625444266,0.594338983 C-0.137278023,1.09716384 0.162455651,1.70055367 0.662011774,1.90168362 L8.95464341,5.11976271 C9.05455464,5.11976271 9.15446586,5.22032768 9.35428831,5.22032768 C9.75393321,5.22032768 10.1535781,5.01919774 10.2534893,4.61693785 C10.4533118,4.01354802 10.1535781,3.41015819 9.65402198,3.20902825" id="Fill-5"></path>
                        </g>
                        <g id="Group-10" transform="translate(12.988459, 13.786452)" fill="#50538C">
                            <path d="M40.0271342,32.3728701 C39.8273117,32.574 39.7274005,32.9762599 39.7274005,33.2779548 L42.4250036,49.3683503 L28.0377872,41.8259774 C27.7380535,41.6248475 27.4383199,41.6248475 27.1385862,41.8259774 L12.8512811,49.3683503 L15.5488841,33.2779548 C15.6487954,32.9762599 15.4489729,32.574 15.2491505,32.3728701 L3.75935965,21.0090282 L19.8450668,18.6960339 C20.1448005,18.6960339 20.4445341,18.394339 20.6443566,18.193209 L27.8379648,3.61128814 L34.8317505,18.0926441 C34.9316617,18.394339 35.2313954,18.5954689 35.6310403,18.5954689 L51.7167474,20.9084633 L40.0271342,32.3728701 Z M53.9147944,19.2994237 L36.4303301,16.7852994 L28.6372546,0.795468927 C28.3375209,0.0915141243 27.1385862,0.0915141243 26.8388525,0.795468927 L19.045777,16.7852994 L1.56131271,19.2994237 C1.16166781,19.3999887 0.861934134,19.6011186 0.76202291,20.0033785 C0.662111685,20.4056384 0.76202291,20.8078983 1.06175658,21.0090282 L13.7504821,33.4790847 L10.7531454,51.0779548 C10.6532341,51.4802147 10.8530566,51.8824746 11.1527903,52.0836045 C11.3526127,52.1841695 11.5524352,52.2847345 11.7522576,52.2847345 C11.9520801,52.2847345 12.0519913,52.2847345 12.2518137,52.1841695 L27.937876,43.9378418 L43.6239382,52.1841695 C43.9236719,52.3852994 44.3233168,52.2847345 44.7229617,52.0836045 C45.0226954,51.8824746 45.2225178,51.4802147 45.1226066,51.0779548 L42.1252699,33.4790847 L54.8139954,21.0090282 C55.1137291,20.7073333 55.2136403,20.3050734 55.1137291,20.0033785 C54.6141729,19.6011186 54.3144393,19.2994237 53.9147944,19.2994237 L53.9147944,19.2994237 Z" id="Fill-8"></path>
                        </g>
                        <path d="M59.4098118,17.4983051 C59.7095455,17.4983051 60.0092792,17.2971751 60.2091016,17.0960452 L65.5043965,9.35254237 C65.8041302,8.84971751 65.704219,8.24632768 65.2046628,7.94463277 C64.7051067,7.64293785 64.1056394,7.74350282 63.8059057,8.24632768 L58.610522,15.8892655 C58.3107883,16.3920904 58.4106996,16.9954802 58.9102557,17.2971751 C59.0101669,17.3977401 59.2099894,17.4983051 59.4098118,17.4983051" id="Fill-11" fill="#50538C"></path>
                        <g id="Group-15" transform="translate(69.937857, 27.865548)">
                            <mask id="mask-2" fill="white">
                                <use xlink:href="#path-1"></use>
                            </mask>
                            <g id="Clip-14"></g>
                            <path d="M11.1527903,0.594338983 C10.9529678,0.0915141243 10.3535005,-0.109615819 9.85394434,0.0915141243 L1.56131271,3.30959322 C1.06175658,3.51072316 0.76202291,4.11411299 0.961845359,4.61693785 C1.16166781,5.01919774 1.46140148,5.22032768 1.86104638,5.22032768 C1.9609576,5.22032768 2.06086883,5.22032768 2.26069128,5.11976271 L10.5533229,1.90168362 C11.052879,1.70055367 11.3526127,1.09716384 11.1527903,0.594338983" id="Fill-13" fill="#50538C" mask="url(#mask-2)"></path>
                        </g>
                    </g>
                </g>
            </g>
        </g>
    </g>
</svg>