<?xml version="1.0" encoding="UTF-8" standalone="no"?>
<svg width="90px" height="89px" viewBox="0 0 90 89" version="1.1" xmlns="http://www.w3.org/2000/svg" xmlns:xlink="http://www.w3.org/1999/xlink">
    <!-- Generator: Sketch 40.2 (33826) - http://www.bohemiancoding.com/sketch -->
    <title>Page 1</title>
    <desc>Created with Sketch.</desc>
    <defs>
        <polygon id="path-1" points="0 89 89.6597123 89 89.6597123 0 0 0"></polygon>
    </defs>
    <g id="Page-1" stroke="none" stroke-width="1" fill="none" fill-rule="evenodd">
        <g id="Desktop-HD-Copy-3" transform="translate(-670.000000, -795.000000)">
            <g id="Group-9" transform="translate(247.000000, 581.000000)">
                <g id="Group-5" transform="translate(14.000000, 214.000000)">
                    <g id="Page-1" transform="translate(409.224008, 0.000000)">
                        <path d="M62.4328948,41.2099667 L62.4219247,41.2099667 L62.4219247,46.8970667 C62.31721,49.5413556 59.9317095,49.7262778 59.4230953,49.7351778 C58.9005191,49.7262778 56.3933502,49.5413556 56.3933502,46.7309333 L56.3933502,45.0211444 C56.4013284,44.8945667 56.4152904,44.7729333 56.4152904,44.6433889 L56.4162877,37.8586222 C56.632698,35.3953 58.9304376,35.2301556 59.4021524,35.2242222 C62.3471285,35.2242222 62.4328948,37.9209222 62.4328948,38.2284667 L62.4328948,41.2099667 L62.4328948,41.2099667 Z M54.1155563,37.8655444 C54.1095726,37.9901444 54.0946133,38.1107889 54.0946133,38.2383556 L54.0946133,45.0310333 C53.8742138,47.4745778 51.6014063,47.6506 51.1067541,47.6585111 C50.5961453,47.6496111 48.2056584,47.4656778 48.0899736,44.8480889 C48.0909709,44.7788667 48.101941,44.7136 48.101941,44.6433889 L48.101941,29.5470111 C48.3303188,27.1034667 50.6160909,26.9403 51.0798274,26.9333778 C51.5884417,26.9393111 54.1175508,27.1153333 54.1175508,29.9376222 L54.1155563,37.8655444 L54.1155563,37.8655444 Z M45.799215,29.5549222 C45.7912368,29.6854556 45.7762775,29.8130222 45.7762775,29.9485 L45.7752803,42.0920556 C44.7979431,41.4759778 43.6710136,41.2099667 42.741546,41.2099667 L39.7606677,41.2099667 L39.7606677,25.8149444 C39.7606677,22.9827667 42.2728231,22.8067444 42.7694699,22.8008111 C43.0796249,22.8008111 45.799215,22.8848667 45.799215,25.8050556 L45.799215,29.5549222 L45.799215,29.5549222 Z M37.4489662,41.2099667 L34.4232102,41.2099667 C34.387308,41.2099667 33.0599246,41.2257889 31.4104189,41.7271556 L31.4114162,29.9485 C31.4114162,27.1163222 33.9235715,26.9403 34.4132374,26.9333778 C34.919857,26.9393111 37.4499635,27.1153333 37.4499635,29.9376222 L37.4489662,41.2099667 L37.4489662,41.2099667 Z M59.4031496,32.9418667 C59.2685165,32.9418667 58.053826,32.9606556 56.8062253,33.5836556 C56.6676029,33.6518889 56.5439399,33.7339667 56.4162877,33.8120889 L56.4162877,29.9376222 C56.4162877,26.0601889 53.2279746,24.6520111 51.0848139,24.6520111 C50.9501807,24.6520111 49.734493,24.6698111 48.4878895,25.2928111 C48.345278,25.3640111 48.2176258,25.4480667 48.0859845,25.5291556 C47.9363921,21.8633444 44.8597747,20.5174667 42.7684726,20.5174667 C42.6338395,20.5174667 41.419149,20.5352667 40.1715482,21.1582667 C38.4971104,21.9948667 37.5536809,23.5494 37.4738983,25.5469556 C36.4915747,24.92 35.3546723,24.6510222 34.4182238,24.6510222 C34.2835906,24.6510222 33.0689002,24.6688222 31.8212994,25.2918222 C30.0720654,26.166 29.1086902,27.8194222 29.1086902,29.9475111 L29.1076929,42.7249444 C26.9485757,43.9946778 24.9530128,46.3264778 24.9530128,50.6172667 L24.9520155,54.7557667 C24.9609911,57.8351667 26.752111,63.5084222 33.2922915,64.1067 L33.2922915,89 L35.5940202,89 L35.5940202,64.1620778 L35.5940202,61.8807111 L34.4431559,61.8807111 L34.4371722,61.8807111 C34.3294656,61.8807111 34.2277428,61.8737889 34.1230281,61.8708222 C34.0153216,61.8668667 33.9036259,61.8668667 33.7999085,61.8599444 C33.7051666,61.8540111 33.6164084,61.8421444 33.5246584,61.8342333 C33.4159546,61.8243444 33.3042589,61.8164333 33.1985469,61.8035778 C33.1187643,61.7927 33.0449654,61.7778667 32.9671773,61.7650111 C32.8564789,61.7472111 32.7427887,61.7323778 32.6350822,61.7106222 C32.5732506,61.6967778 32.5154082,61.6819444 32.454574,61.6671111 C32.3378919,61.6414 32.2202125,61.6156889 32.1085168,61.5850333 C32.0556609,61.5692111 32.006794,61.5524 31.9559326,61.5365778 C31.8412451,61.5019667 31.7265575,61.4683444 31.6178537,61.4287889 C31.5719787,61.4129667 31.5300928,61.3941778 31.4842178,61.3763778 C31.375514,61.3338556 31.2648156,61.2913333 31.1610982,61.2448556 C31.1311797,61.232 31.1042531,61.2171667 31.0753319,61.2033222 C30.9606444,61.1499222 30.8459568,61.0955333 30.7382503,61.0362 C30.7153128,61.0233444 30.6933726,61.0095 30.6704351,60.9966444 C30.5597367,60.9353333 30.4510328,60.8720444 30.3473154,60.8048 C30.3253752,60.7909556 30.3054296,60.7761222 30.2834893,60.7612889 C30.1817665,60.6940444 30.0810409,60.6248222 29.9853018,60.5536222 C29.9843045,60.5516444 29.9823099,60.5506556 29.9813126,60.5496667 C27.4462198,58.6322111 27.2677062,55.2670222 27.2557388,54.8002667 C27.2547415,54.7795 27.2547415,54.7636778 27.2547415,54.7537889 L27.2557388,50.6182556 C27.2557388,50.3749889 27.2667089,50.1416111 27.2826654,49.9092222 C27.2866545,49.8518667 27.2906437,49.7955 27.2966274,49.7381444 C27.3155757,49.5146556 27.3405078,49.2951222 27.3754127,49.0825111 C27.37641,49.0785556 27.37641,49.0736111 27.3774073,49.0686667 C27.4143067,48.8501222 27.4601817,48.6385 27.5130377,48.4308333 C27.5250051,48.3863333 27.5359752,48.3418333 27.5489399,48.2963444 C27.6047877,48.0946111 27.665622,47.8968333 27.7364291,47.7059778 C27.7364291,47.7049889 27.7364291,47.704 27.7374264,47.7030111 C27.8112253,47.5072111 27.8959943,47.3173444 27.9867471,47.1344 C28.0027036,47.1017667 28.0196574,47.0691333 28.0366112,47.0374889 C28.2241004,46.6735778 28.4464944,46.3353778 28.7027961,46.0238778 C28.7207472,46.0031111 28.7396956,45.9793778 28.7586439,45.9586111 C29.2782283,45.3464889 29.9284567,44.8362222 30.7153128,44.4347333 C32.5283729,43.5111111 34.408251,43.4893556 34.4232102,43.4893556 L42.734565,43.4893556 C43.2411847,43.4952889 45.7712911,43.6703222 45.7712911,46.4827222 C45.7712911,47.3895333 45.5329405,48.0659333 45.044272,48.5495 C44.1806251,49.4048889 42.7754536,49.4167556 42.741546,49.4167556 L33.2284654,49.4167556 L33.2284654,49.7964889 L33.2284654,51.6981222 L34.3853135,51.6981222 L42.7245922,51.6981222 C42.9679292,51.7030667 45.1120872,51.6882333 46.6489,50.1861111 C47.0737425,49.7707778 47.3988567,49.2882 47.6332181,48.7453 C48.6983161,49.5848667 50.0336778,49.9369111 51.1057568,49.9369111 C51.24039,49.9369111 52.4560777,49.9191111 53.7036785,49.2961111 C53.9799258,49.1566778 54.2302438,48.9925222 54.4675971,48.8174889 C55.3681435,51.1235778 57.7227281,52.0155556 59.4240926,52.0155556 C59.5587258,52.0155556 60.7734162,51.9977556 62.021017,51.3747556 C62.1636284,51.3035556 62.2912806,51.2195 62.4219247,51.1394 L62.4219247,58.8784444 C62.415941,59.3808 62.2384246,61.8797222 59.4121252,61.8797222 L58.2612608,61.8797222 L58.2612608,89 L60.5639868,89 L60.5639868,64.0622 C62.1436828,63.7744333 63.3703406,62.8775111 64.0814032,61.4634 C64.704705,60.2253111 64.7236534,59.0208444 64.7236534,58.8873444 L64.7236534,46.8911333 C64.7246506,46.8327889 64.7346235,46.7793889 64.7346235,46.7210444 L64.7346235,38.2274778 C64.7346235,34.3500444 61.5473077,32.9418667 59.4031496,32.9418667 L59.4031496,32.9418667 Z" id="Fill-1" fill="#50538C"></path>
                        <polygon id="Fill-3" fill="#50538C" points="79.4002653 8.50385111 81.0268336 10.1177178 72.6985249 18.3729622 71.0719567 16.7600844"></polygon>
                        <mask id="mask-2" fill="white">
                            <use xlink:href="#path-1"></use>
                        </mask>
                        <g id="Clip-6"></g>
                        <polygon id="Fill-5" fill="#50538C" mask="url(#mask-2)" points="79.0406452 43.4814444 89.6597123 43.4814444 89.6597123 41.2000778 79.0406452 41.2000778"></polygon>
                        <polygon id="Fill-7" fill="#50538C" mask="url(#mask-2)" points="41.5896844 10.5494667 43.8914131 10.5494667 43.8914131 0 41.5896844 0"></polygon>
                        <polygon id="Fill-8" fill="#50538C" mask="url(#mask-2)" points="16.944433 18.3575356 8.61712171 10.1003133 10.24369 8.48743556 18.5710013 16.7446578"></polygon>
                        <polygon id="Fill-9" fill="#50538C" mask="url(#mask-2)" points="79.4058501 76.2496622 71.0785388 67.99244 72.7041097 66.3795622 81.0324183 74.6367844"></polygon>
                        <polygon id="Fill-10" fill="#50538C" mask="url(#mask-2)" points="10.2424932 76.2661767 8.61592497 74.65231 16.9442336 66.3970656 18.5708018 68.0099433"></polygon>
                        <polygon id="Fill-11" fill="#50538C" mask="url(#mask-2)" points="0 43.4814444 10.6200645 43.4814444 10.6200645 41.2000778 0 41.2000778"></polygon>
                    </g>
                </g>
            </g>
        </g>
    </g>
</svg>