<?xml version="1.0" encoding="UTF-8" standalone="no"?>
<svg width="67px" height="67px" viewBox="0 0 67 67" version="1.1" xmlns="http://www.w3.org/2000/svg" xmlns:xlink="http://www.w3.org/1999/xlink">
    <!-- Generator: Sketch 40.2 (33826) - http://www.bohemiancoding.com/sketch -->
    <title>Fill 1</title>
    <desc>Created with Sketch.</desc>
    <defs></defs>
    <g id="Page-1" stroke="none" stroke-width="1" fill="none" fill-rule="evenodd">
        <g id="Desktop-HD-Copy-3" transform="translate(-906.000000, -807.000000)" fill="#FFCC00">
            <g id="Group-9" transform="translate(247.000000, 581.000000)">
                <g id="Group-5" transform="translate(14.000000, 214.000000)">
                    <path d="M653.647802,73.0199496 L652.592484,74.0708106 L653.647802,75.1150346 L654.707583,74.0708106 L653.647802,73.0199496 Z M649.419834,73.0199496 L648.366746,74.0708106 L649.419834,75.1150346 L650.479615,74.0708106 L649.419834,73.0199496 Z M650.479615,67.783343 L649.419834,68.8275671 L650.479615,69.8784281 L651.534934,68.8275671 L650.479615,67.783343 Z M656.934239,65.5754287 L650.479615,71.9735132 L651.539396,73.0199496 L657.991789,66.6196527 C657.965015,66.6196527 657.936011,66.5997417 657.909237,66.5864676 C657.900313,66.5798306 657.891388,66.5709812 657.882464,66.5643442 C657.848997,66.5422208 657.813299,66.5223098 657.779833,66.5001864 L657.790988,66.5200974 C657.750828,66.4957617 657.710668,66.4670013 657.670508,66.4382409 C657.621423,66.4050558 657.57457,66.3696584 657.529947,66.3320486 C657.521023,66.3231993 657.512098,66.3143499 657.505405,66.3055006 C657.485325,66.2900142 657.469707,66.2745278 657.451858,66.2568291 L657.438472,66.2568291 L657.434009,66.2568291 C657.429547,66.2501921 657.425085,66.2435551 657.420623,66.2369181 C657.405005,66.2147947 657.389387,66.2147947 657.373769,66.1926713 C657.367076,66.1838219 657.362614,66.1749726 657.35592,66.1661232 C657.338071,66.1439998 657.317991,66.1373628 657.300142,66.1152394 C657.266675,66.079842 657.23544,66.0444446 657.204204,66.0068348 C657.199742,65.9979854 657.197511,65.9891361 657.19528,65.9802867 C657.15512,65.9316153 657.126115,65.8785191 657.090417,65.825423 C657.03687,65.7612652 656.992248,65.688258 656.954319,65.6130384 C656.949857,65.5931274 656.940932,65.5887027 656.934239,65.5754287 L656.934239,65.5754287 Z M665.448185,63.4183981 C663.815006,64.396252 662.090352,65.3984416 660.296534,66.4293915 L654.707583,71.9735132 L655.765133,73.0199496 L665.448185,63.4183981 Z M660.240756,58.0999351 L651.539396,66.732482 L652.592484,67.783343 L657.208666,63.2060136 C658.248367,61.427293 659.256833,59.7193672 660.240756,58.0999351 L660.240756,58.0999351 Z M689.751751,52.7239512 C690.844999,56.1619261 690.164508,60.1574104 687.279673,64.2436006 C684.731736,67.8541379 680.436834,71.1593724 675.423513,73.9579813 C677.250798,71.1416737 678.627398,68.5642987 678.999995,66.3917818 C679.432831,63.8829893 678.413211,61.8609114 676.739872,60.2813014 C677.911209,59.7414906 679.078084,59.1640701 680.251652,58.5446152 C680.309661,58.5158548 680.363208,58.484882 680.421217,58.4539093 C681.456455,57.9030369 682.491694,57.3698632 683.520239,56.7592576 C685.720122,55.4871626 687.795061,54.1354235 689.751751,52.7239512 L689.751751,52.7239512 Z M680.791582,42.9719607 C680.762578,46.17764 679.207488,49.1134139 675.680091,52.2615723 C672.516366,55.0867293 667.746236,58.0910857 662.271073,61.3321624 C665.537429,55.8986577 668.565056,51.1686768 671.414194,48.0315801 C674.591306,44.5338721 677.556461,42.9985088 680.791582,42.9719607 L680.791582,42.9719607 Z M667.445035,33.3969573 C668.663225,33.4102313 669.805558,33.7376575 670.934503,34.0872071 C670.5686,34.5805587 670.216084,35.1004584 669.859105,35.6092964 C669.8301,35.6469061 669.807789,35.6867282 669.778784,35.7265503 C668.908648,36.9654602 668.056361,38.2441922 667.23531,39.5804449 C666.543664,40.6888268 665.912257,41.8038457 665.296469,42.9232892 C665.187144,43.1246121 665.075588,43.3192979 664.968494,43.5206208 C664.363861,44.644489 663.799389,45.7617202 663.268382,46.8855885 C662.697216,46.2594965 662.217526,45.4940272 661.474564,45.1444776 C660.193902,44.5427214 658.705746,44.4144057 657.112728,44.6997975 C654.944082,45.0891691 652.369372,46.458607 649.55147,48.2683004 C652.371603,43.3082362 655.700431,39.0605453 659.334922,36.5384788 C661.659747,34.9256836 663.989034,33.8969459 666.19784,33.5009372 C666.623984,33.4235054 667.038972,33.3925326 667.445035,33.3969573 L667.445035,33.3969573 Z M690.840537,29.7421732 C691.679437,29.7421732 692.518338,30.06075 693.163131,30.700116 C694.454948,31.9810603 694.450486,34.0252616 693.158668,35.3062059 C691.866851,36.5871502 689.809761,36.5871502 688.517943,35.3062059 C687.226126,34.0252616 687.221664,31.9810603 688.513481,30.700116 C689.158274,30.06075 690.001637,29.7421732 690.840537,29.7421732 L690.840537,29.7421732 Z M690.840537,27.5408959 C689.426008,27.5408959 688.007017,28.0740696 686.936081,29.1359923 C684.791976,31.2620501 684.796439,34.7442718 686.940543,36.8703296 C689.084647,38.9963874 692.591965,38.9963874 694.736069,36.8703296 C696.880173,34.7442718 696.884635,31.2620501 694.740531,29.1359923 C693.667363,28.0740696 692.255066,27.5408959 690.840537,27.5408959 L690.840537,27.5408959 Z M693.66067,18.0012899 L706.061223,30.3240184 C705.963054,30.5142795 705.844805,30.7266641 705.73548,30.9301993 C705.733249,30.9301993 705.731018,30.9324116 705.731018,30.934624 C705.693089,30.9855078 705.659622,31.0408162 705.630617,31.098337 C705.438741,31.47001 705.224554,31.8284089 705.023753,32.1956572 C704.809566,32.5651178 704.566374,32.9788252 704.41912,33.2664293 C704.396809,33.3106761 704.37896,33.3549229 704.361111,33.401382 C697.219303,45.6732267 685.006164,54.4473633 673.576147,59.2525637 L672.114765,57.805694 C673.986673,56.5048386 675.729176,55.2150449 677.17494,53.9252513 C681.367211,50.184186 683.743351,46.2064004 683.214576,41.6666807 C683.205652,41.5870364 683.187803,41.5073922 683.16326,41.4299604 L683.140949,41.3768642 C683.056167,41.1335069 682.886602,40.9277594 682.665721,40.7950191 L682.578708,40.7419229 C682.442609,40.6600664 682.288662,40.6069703 682.130253,40.5870592 L682.130253,40.5649358 C677.551999,40.0406115 673.533756,42.3989649 669.758704,46.5537376 C668.4535,47.9895456 667.150528,49.7218071 665.836399,51.5801719 L664.292466,50.0492333 C669.133991,38.7353314 677.962525,26.8130363 690.329611,19.7468254 C690.380927,19.7291267 690.42778,19.7092157 690.474634,19.6870923 C691.297916,19.2711725 692.701289,18.4902168 693.66067,18.0012899 L693.66067,18.0012899 Z M709.599776,14.406239 C709.463678,19.2225011 708.526608,23.724611 706.975981,27.8749591 L696.083664,17.0765322 C700.262548,15.5190455 704.751557,14.550041 709.599776,14.406239 L709.599776,14.406239 Z M710.802349,12.0677966 C710.744339,12.0700089 710.68633,12.0788583 710.628321,12.08992 C704.470436,12.1186804 698.796703,13.381926 693.647283,15.5168332 C693.618279,15.5256825 693.587043,15.5389566 693.56027,15.5500183 C693.511185,15.5699293 693.459869,15.5832033 693.410785,15.6031144 C693.314847,15.6429365 693.225602,15.698245 693.145282,15.7624028 C692.7236,15.9615133 692.259528,16.1982336 691.76422,16.468139 C691.735215,16.4792007 691.706211,16.4924747 691.677206,16.5057487 C691.623659,16.5322968 691.574575,16.5654819 691.521028,16.59203 C691.30461,16.7092839 691.179667,16.7712294 690.974404,16.886271 C683.714347,20.6760078 677.589928,26.0143819 672.652464,32.0053961 C671.702008,31.6115997 670.72701,31.3151463 669.718544,31.1934676 L669.718544,31.1978923 C665.954648,30.7377258 661.862778,32.0872526 658.058722,34.7265731 C652.98516,38.2486168 648.288657,44.0914042 645.111545,51.4673426 C644.870585,52.0292767 645.133857,52.6797044 645.70056,52.918637 C646.070926,53.0757131 646.499301,53.0204046 646.818351,52.7770473 C651.423378,49.2350925 655.004322,47.3258439 657.507636,46.8789514 C658.761524,46.6532929 659.716443,46.7705468 660.515183,47.1466445 C661.204598,47.469646 661.809231,48.0249431 662.362549,48.8523579 C662.219757,49.1842087 662.041268,49.5160596 661.905169,49.8456981 C661.733373,50.2594055 661.829311,50.7372707 662.150592,51.0514229 L664.546813,53.4296873 C662.46518,56.5380237 660.323307,60.0777662 658.005175,64.0444901 C658.000713,64.0444901 657.996251,64.0444901 657.991789,64.0666135 C657.982864,64.0820998 657.97394,64.0975862 657.967246,64.1152849 C657.962784,64.1241343 657.958322,64.135196 657.95386,64.1440453 C657.949398,64.1528947 657.947166,64.1595317 657.944935,64.1661687 C657.931549,64.1949291 657.920393,64.2236895 657.909237,64.2524499 C657.907006,64.2590869 657.904775,64.2679363 657.900313,64.2745733 C657.89362,64.3011214 657.884695,64.3276695 657.878002,64.3564299 C657.869077,64.3918273 657.862384,64.4272247 657.857922,64.4648345 C657.853459,64.4869579 657.851228,64.5068689 657.848997,64.5289923 C657.846766,64.5444787 657.844535,64.5577527 657.844535,64.5732391 L657.844535,64.5975748 C657.844535,64.6351846 657.844535,64.6727943 657.848997,64.7104041 C657.851228,64.7391645 657.853459,64.7679249 657.857922,64.7966853 C657.857922,64.8033224 657.860153,64.8121717 657.862384,64.8188087 C657.869077,64.8542062 657.878002,64.8918159 657.886926,64.9272133 C657.898082,64.9603984 657.909237,64.9935835 657.922624,65.0267686 C657.93378,65.0533167 657.944935,65.0820771 657.958322,65.1086251 C657.971709,65.1395979 657.987327,65.1705706 658.005175,65.199331 L658.009638,65.199331 C658.0141,65.2059681 658.018562,65.2126051 658.023024,65.2214544 C658.038642,65.2435778 658.056491,65.2679136 658.07434,65.2900369 C658.078802,65.296674 658.083265,65.303311 658.087727,65.3121603 C658.107807,65.3342837 658.127887,65.3586195 658.150198,65.3807428 C658.168047,65.3984416 658.185896,65.4161403 658.205976,65.4316266 C658.212669,65.440476 658.219363,65.4493254 658.228287,65.4581747 C658.232749,65.4648117 658.239443,65.4736611 658.246136,65.4802981 C658.268447,65.4979968 658.290759,65.5156955 658.315301,65.5311819 C658.319763,65.5400313 658.326456,65.5466683 658.33315,65.5533053 C658.357692,65.571004 658.384465,65.5887027 658.411239,65.6041891 C658.442475,65.6241001 658.475941,65.6417988 658.511639,65.6572852 C658.527257,65.6639222 658.545106,65.6727716 658.562955,65.6794086 C658.578573,65.6860456 658.594191,65.6926826 658.61204,65.6993197 L658.63212,65.6993197 C658.661124,65.708169 658.690129,65.714806 658.719133,65.7214431 C658.745907,65.7302924 658.77268,65.7369294 658.799453,65.7435664 L658.850769,65.7435664 C658.882005,65.7457788 658.911009,65.7457788 658.942245,65.7435664 L658.960094,65.7435664 C659.033721,65.7435664 659.109579,65.7369294 659.180975,65.7214431 C659.216672,65.714806 659.25237,65.7059567 659.285837,65.694895 C659.323766,65.6838333 659.359464,65.6727716 659.395162,65.6572852 C659.437553,65.6395865 659.477713,65.6196755 659.517873,65.5975521 C659.542416,65.5754287 659.562496,65.5687917 659.587038,65.5533053 C663.567352,63.2635344 667.123754,61.1419012 670.24955,59.0844259 L672.565451,61.3786215 C672.882269,61.6971983 673.36196,61.7923289 673.779179,61.6219788 C674.104922,61.4892385 674.437359,61.3144637 674.765333,61.1750863 C676.559152,62.340989 677.197251,63.7015775 676.800112,66.0201088 C676.369507,68.5289013 674.473056,72.0951918 670.903268,76.6592473 C670.52844,77.1415372 670.617685,77.8362116 671.1063,78.2100969 C671.425349,78.4556666 671.853724,78.5087627 672.22409,78.3516866 C679.662637,75.2013158 685.555019,70.5443422 689.106958,65.5134832 C692.493795,60.7149198 693.732066,55.4584022 691.828922,50.9961144 C697.835092,46.1798523 703.207623,40.2264479 707.03399,33.1712987 C707.187938,32.9036057 707.283876,32.7244062 707.451209,32.4323775 C707.803726,31.8261966 708.109389,31.2576255 708.361506,30.7310888 C708.399435,30.673568 708.432901,30.6160471 708.457444,30.5541016 C708.459675,30.549677 708.461906,30.5452523 708.461906,30.5408276 C708.481986,30.4987932 708.519915,30.4434847 708.537764,30.4014503 C708.571231,30.3195937 708.598004,30.2311001 708.611391,30.1426066 C710.746571,25.0055553 711.953605,19.2888712 711.953605,13.1739661 C711.953605,12.5633606 711.453835,12.0677966 710.838046,12.0677966 L710.833584,12.0677966 L710.829122,12.0677966 L710.802349,12.0677966 L710.802349,12.0677966 Z" id="Fill-1"></path>
                </g>
            </g>
        </g>
    </g>
</svg>