<?xml version="1.0" encoding="UTF-8" standalone="no"?>
<svg width="74px" height="43px" viewBox="0 0 74 43" version="1.1" xmlns="http://www.w3.org/2000/svg" xmlns:xlink="http://www.w3.org/1999/xlink">
    <!-- Generator: Sketch 40.2 (33826) - http://www.bohemiancoding.com/sketch -->
    <title>Page 1</title>
    <desc>Created with Sketch.</desc>
    <defs></defs>
    <g id="Page-1" stroke="none" stroke-width="1" fill="none" fill-rule="evenodd">
        <g id="Desktop-HD-Copy-3" transform="translate(-466.000000, -819.000000)" fill="#FFCC00">
            <g id="Group-9" transform="translate(247.000000, 581.000000)">
                <g id="Group-5" transform="translate(14.000000, 214.000000)">
                    <path d="M272.009375,54.9804908 L274.307193,54.9804908 L274.307193,48.1450564 L272.009375,48.1450564 L272.009375,54.9804908 Z M242.137737,44.7273392 L210.657625,35.6134267 L242.137737,26.4995143 L273.617848,35.6134267 L242.137737,44.7273392 Z M265.11592,58.8539036 C263.047884,59.9931426 254.660847,64.0944032 242.137737,64.0944032 C229.614627,64.0944032 221.22759,59.9931426 219.159553,58.8539036 L219.159553,40.3982308 L221.457372,41.0817742 L221.457372,53.8412517 C221.457372,54.5247951 221.916935,54.9804908 222.606281,54.9804908 C223.295626,54.9804908 223.75519,54.5247951 223.75519,53.8412517 L223.75519,41.7653177 L241.793064,47.0058173 L242.137737,47.0058173 L242.482409,47.0058173 L265.11592,40.3982308 L265.11592,58.8539036 Z M278.098594,34.4741877 L242.482409,24.2210361 C242.252628,24.1071122 242.022846,24.1071122 241.793064,24.2210361 L206.17688,34.4741877 C205.717316,34.5881116 205.372643,35.0438072 205.372643,35.6134267 C205.372643,36.1830463 205.717316,36.524818 206.17688,36.7526658 L216.861735,39.8286113 L216.861735,59.537447 C216.861735,59.8792187 217.091517,60.3349143 217.43619,60.4488382 C217.780862,60.79061 226.857245,66.3728814 242.137737,66.3728814 C257.418229,66.3728814 266.494611,60.79061 266.839284,60.4488382 C267.183957,60.2209904 267.413738,59.8792187 267.413738,59.537447 L267.413738,39.8286113 L272.009375,38.4615244 L272.009375,45.8665783 L270.860466,45.8665783 C270.17112,45.8665783 269.711557,46.3222739 269.711557,47.0058173 L269.711557,56.1197298 C269.711557,56.8032733 270.17112,57.2589689 270.860466,57.2589689 L275.456103,57.2589689 C276.145448,57.2589689 276.605012,56.8032733 276.605012,56.1197298 L276.605012,47.0058173 C276.605012,46.3222739 276.145448,45.8665783 275.456103,45.8665783 L274.307193,45.8665783 L274.307193,37.777981 L278.098594,36.6387419 C278.558157,36.524818 278.90283,36.0691224 278.90283,35.4995028 C278.90283,34.9298833 278.558157,34.7020355 278.098594,34.4741877 L278.098594,34.4741877 Z" id="Page-1"></path>
                </g>
            </g>
        </g>
    </g>
</svg>