<?xml version="1.0" encoding="UTF-8" standalone="no"?>
<svg width="56px" height="67px" viewBox="0 0 56 67" version="1.1" xmlns="http://www.w3.org/2000/svg" xmlns:xlink="http://www.w3.org/1999/xlink">
    <!-- Generator: Sketch 40.2 (33826) - http://www.bohemiancoding.com/sketch -->
    <title>Page 1</title>
    <desc>Created with Sketch.</desc>
    <defs>
        <polygon id="path-1" points="27.1180162 26.2521854 27.1180162 0.849331201 0.0270094446 0.849331201 0.0270094446 26.2521854 27.1180162 26.2521854"></polygon>
        <polygon id="path-3" points="0.187636216 4.40467367 10.8810362 4.40467367 10.8810362 0.832593441 0.187636216 0.832593441"></polygon>
        <polygon id="path-5" points="2.72333419 0.408533483 0.0277770972 0.408533483 0.0277770972 13.0662442 2.72333419 13.0662442 2.72333419 0.408533483"></polygon>
        <polygon id="path-7" points="0 67.8641287 55.5341786 67.8641287 55.5341786 1.10138865 0 1.10138865"></polygon>
    </defs>
    <g id="Page-1" stroke="none" stroke-width="1" fill="none" fill-rule="evenodd">
        <g id="Desktop-HD-Copy-3" transform="translate(-1116.000000, -805.000000)">
            <g id="Group-9" transform="translate(247.000000, 581.000000)">
                <g id="Group-5" transform="translate(14.000000, 214.000000)">
                    <g id="Page-1" transform="translate(854.958707, 9.050847)">
                        <g id="Group-3" transform="translate(0.000000, 21.615055)" fill="#50538C">
                            <path d="M0.669502687,0.666537244 C-1.68061076,13.5711299 2.35395171,25.1234878 9.67735701,26.4680145 C10.1467217,26.5539056 10.6182797,26.5946488 11.0909343,26.5946488 C17.9855509,26.5946488 24.9953153,17.612418 27.1940915,5.53370165 L0.669502687,0.666537244 Z M2.49103252,3.23996784 L24.5818796,7.29336878 C22.2438292,17.0420128 16.5500406,24.392312 11.0909343,24.392312 C10.7487806,24.392312 10.4055303,24.3625804 10.0721498,24.2998138 C7.33821004,23.7987822 5.04621886,21.267196 3.61619182,17.1719507 C2.23441724,13.2165537 1.84730102,8.33507411 2.49103252,3.23996784 L2.49103252,3.23996784 Z" id="Fill-1"></path>
                        </g>
                        <polygon id="Fill-4" fill="#50538C" points="8.66339766 47.5055067 10.8205013 47.9008262 7.6500963 65.3279176 5.49299264 64.9325981"></polygon>
                        <polygon id="Fill-6" fill="#50538C" points="1.61141236 63.1005842 11.9341458 64.9956951 11.5404497 67.1605922 1.21771627 65.2654813"></polygon>
                        <g id="Group-10" transform="translate(28.416162, 22.716224)">
                            <mask id="mask-2" fill="white">
                                <use xlink:href="#path-1"></use>
                            </mask>
                            <g id="Clip-9"></g>
                            <path d="M26.7544779,0.849331201 L0.0270094446,4.42372389 C1.67197919,16.8195768 8.45583442,26.2521854 15.4798552,26.2521854 C15.8242022,26.2521854 16.1696459,26.2290609 16.5139929,26.1828118 C23.8955205,25.1950638 28.4816961,13.8530291 26.7544779,0.849331201 M24.8101236,3.33136482 C25.6227387,14.0115973 21.908397,23.2404898 16.2277681,24.000296 C15.9810227,24.0333311 15.7309873,24.0498486 15.4809519,24.0498486 C10.0086859,24.0498486 4.455268,16.2722961 2.55368297,6.30782305 L24.8101236,3.33136482" id="Fill-8" fill="#50538C" mask="url(#mask-2)"></path>
                        </g>
                        <polygon id="Fill-11" fill="#50538C" points="45.9676926 48.3764208 48.2969697 65.9378548 46.1223197 66.2285632 43.7930426 48.6671293"></polygon>
                        <g id="Group-15" transform="translate(41.672567, 63.459455)">
                            <mask id="mask-4" fill="white">
                                <use xlink:href="#path-3"></use>
                            </mask>
                            <g id="Clip-14"></g>
                            <polygon id="Fill-13" fill="#50538C" mask="url(#mask-4)" points="10.5915215 0.832593441 10.8810362 3.01621041 0.477150891 4.40478379 0.187636216 2.22116682"></polygon>
                        </g>
                        <polygon id="Fill-16" fill="#50538C" points="7.34928617 12.2041395 15.2637839 20.1358556 13.7153191 21.6951101 5.79972467 13.7633939"></polygon>
                        <polygon id="Fill-18" fill="#50538C" points="11.45535 5.79974394 17.1140459 14.7081964 15.2650999 15.8930537 9.60640399 6.98349999"></polygon>
                        <polygon id="Fill-20" fill="#50538C" points="20.260544 5.04291089 24.1492525 15.9048362 22.0853638 16.649226 18.1966553 5.78840191"></polygon>
                        <g id="Group-24" transform="translate(27.319516, 0.692855)">
                            <mask id="mask-6" fill="white">
                                <use xlink:href="#path-5"></use>
                            </mask>
                            <g id="Clip-23"></g>
                            <polygon id="Fill-22" fill="#50538C" mask="url(#mask-6)" points="2.2188768 0.408313249 2.72333419 12.9781507 0.532234486 13.0662442 0.0277770972 0.497507891"></polygon>
                        </g>
                        <polygon id="Fill-25" fill="#50538C" points="36.794135 5.03344084 38.8503471 5.79875289 34.8388142 16.6606782 32.7826021 15.8953661"></polygon>
                        <polygon id="Fill-27" fill="#50538C" points="45.1954341 7.89405616 46.8985261 9.2837307 40.1344105 17.6427002 38.4313185 16.2530256"></polygon>
                        <polygon id="Fill-29" fill="#50538C" points="45.5056754 17.023403 46.580389 18.9438408 38.9663723 23.2417011 37.8916588 21.3212634"></polygon>
                        <mask id="mask-8" fill="white">
                            <use xlink:href="#path-7"></use>
                        </mask>
                        <g id="Clip-32"></g>
                        <polygon id="Fill-31" fill="#50538C" mask="url(#mask-8)" points="1.41248069 34.22013 24.4519269 34.22013 24.4519269 32.0177932 1.41248069 32.0177932"></polygon>
                        <polygon id="Fill-33" fill="#50538C" mask="url(#mask-8)" points="31.1447605 34.22013 54.1831101 34.22013 54.1831101 32.0177932 31.1447605 32.0177932"></polygon>
                    </g>
                </g>
            </g>
        </g>
    </g>
</svg>